<?xml version="1.0" encoding="UTF-8" standalone="no"?>
<svg
   version="1.1"
   width="808"
   height="632"
   style="clip-rule:evenodd;fill-rule:evenodd;image-rendering:optimizeQuality;shape-rendering:geometricPrecision;text-rendering:geometricPrecision"
   id="svg17"
   sodipodi:docname="logo.svg"
   xmlns:inkscape="http://www.inkscape.org/namespaces/inkscape"
   xmlns:sodipodi="http://sodipodi.sourceforge.net/DTD/sodipodi-0.dtd"
   xmlns="http://www.w3.org/2000/svg"
   xmlns:svg="http://www.w3.org/2000/svg">
  <defs
     id="defs17" />
  <sodipodi:namedview
     id="namedview17"
     pagecolor="#ffffff"
     bordercolor="#000000"
     borderopacity="0.25"
     inkscape:showpageshadow="2"
     inkscape:pageopacity="0.0"
     inkscape:pagecheckerboard="0"
     inkscape:deskcolor="#d1d1d1" />
  <g
     id="g18"
     transform="translate(0.5,0.5)">
    <g
       id="g2">
      <path
         style="opacity:1"
         fill="#010101"
         d="m 399.5,68.5 c 21.787,-0.7992 43.454,0.3675 65,3.5 16.843,3.1677 30.676,11.3344 41.5,24.5 20.671,28.996 38.004,59.996 52,93 0.067,25.395 -1.266,50.728 -4,76 -1.024,8.147 -2.691,16.147 -5,24 -8.819,15.147 -19.486,28.814 -32,41 0.797,12.977 1.13,25.977 1,39 -8.179,36.416 -17.846,72.416 -29,108 -3.844,13.362 -10.51,25.029 -20,35 -9.147,20.452 -18.481,40.786 -28,61 -5.681,11.182 -13.181,21.015 -22.5,29.5 -8.225,5.311 -17.225,8.644 -27,10 -33.829,3.309 -65.496,-3.358 -95,-20 -19.693,-13.219 -28.859,-31.719 -27.5,-55.5 7.879,-59.126 13.713,-118.459 17.5,-178 -0.758,-12.809 -2.592,-25.476 -5.5,-38 -4.259,-10.862 -8.259,-21.862 -12,-33 0.818,-9.625 1.151,-19.292 1,-29 -2,-4.667 -4,-9.333 -6,-14 -0.667,-5.333 -0.667,-10.667 0,-16 4.212,-8.178 6.879,-16.845 8,-26 1.027,-14.664 2.027,-29.33 3,-44 0.887,-6.548 2.554,-12.882 5,-19 8.549,-14.544 17.882,-28.544 28,-42 15.102,-15.8239 33.602,-24.9905 55.5,-27.5 12.17,-0.6388 24.17,-1.4721 36,-2.5 z"
         id="path2" />
    </g>
    <g
       id="g3">
      <path
         style="opacity:1"
         fill="#fcfcfc"
         d="m 292.5,363.5 c -0.667,-4.667 -1.333,-9.333 -2,-14 -2.02,-13.083 -4.52,-26.083 -7.5,-39 -4.086,-6.172 -7.086,-12.839 -9,-20 -0.313,-10.055 0.021,-20.055 1,-30 -3.516,-7.546 -6.016,-15.379 -7.5,-23.5 3.831,-10.506 6.664,-21.339 8.5,-32.5 1.027,-13.996 2.027,-27.996 3,-42 0.989,-9.969 4.156,-19.136 9.5,-27.5 21.823,-11.497 44.823,-19.831 69,-25 23.882,-3.352 47.882,-4.352 72,-3 27.297,2.342 54.63,4.175 82,5.5 0.333,0.667 0.667,1.333 1,2 -15.699,-0.261 -31.033,1.906 -46,6.5 -4.431,1.629 -8.264,4.129 -11.5,7.5 1.164,5.475 3.164,10.808 6,16 10.298,15.594 19.298,31.927 27,49 0.806,9.381 0.64,18.715 -0.5,28 -0.333,0.333 -0.667,0.667 -1,1 -5.223,-3.03 -10.723,-5.363 -16.5,-7 -4.082,0.659 -5.416,2.992 -4,7 5.215,13.439 12.215,25.772 21,37 5.459,7.627 11.959,8.794 19.5,3.5 7.579,-8.25 15.745,-15.75 24.5,-22.5 4.316,3.328 8.649,6.662 13,10 5.547,12.112 5.88,24.445 1,37 -7.68,13.847 -17.18,26.347 -28.5,37.5 -1.372,0.402 -2.705,0.902 -4,1.5 -4.042,-8.159 -6.542,-16.826 -7.5,-26 -2.683,-4.831 -6.183,-5.331 -10.5,-1.5 -3.946,3.387 -6.78,7.554 -8.5,12.5 -0.875,5.133 -2.208,10.133 -4,15 -15.008,15.048 -28.342,31.381 -40,49 -3.877,10.572 -7.543,21.238 -11,32 -2.917,6.491 -5.584,6.491 -8,0 -1.667,-5.333 -3.333,-10.667 -5,-16 -2.579,-7.813 -6.579,-8.813 -12,-3 -2.412,5.159 -5.079,10.159 -8,15 -1.619,-9.03 -3.286,-18.03 -5,-27 -14.368,-10.687 -29.535,-20.187 -45.5,-28.5 -3,-0.667 -6,-0.667 -9,0 -5.495,2.183 -11.161,2.849 -17,2 -1.466,-0.635 -2.8,-1.469 -4,-2.5 -9.925,3.113 -18.258,8.446 -25,16 z"
         id="path3" />
    </g>
    <g
       id="g4">
      <path
         style="opacity:1"
         fill="#6c6c6c"
         d="m 300.5,281.5 c 3.726,-0.323 7.393,0.011 11,1 -0.124,0.607 -0.457,0.94 -1,1 -3.333,-0.667 -6.667,-1.333 -10,-2 z"
         id="path4" />
    </g>
    <g
       id="g5">
      <path
         style="opacity:1"
         fill="#111111"
         d="m 357.5,260.5 c 14.068,4.047 28.402,6.88 43,8.5 4.229,1.115 8.229,2.781 12,5 0.837,1.011 1.17,2.178 1,3.5 -3.167,0.1 -6.167,-0.567 -9,-2 -6.981,3.938 -14.481,5.938 -22.5,6 -9.311,-1.218 -18.478,-3.051 -27.5,-5.5 -1.227,-1.587 -0.894,-2.921 1,-4 2.667,-0.667 5.333,-0.667 8,0 1.555,1.289 3.221,1.956 5,2 -1.917,-2.498 -3.584,-5.165 -5,-8 -3.275,-0.07 -6.442,-0.237 -9.5,-0.5 -0.667,-1 -0.667,-2 0,-3 1.302,-0.585 2.469,-1.251 3.5,-2 z"
         id="path5" />
    </g>
    <g
       id="g6">
      <path
         style="opacity:1"
         fill="#e3e3e3"
         d="m 389.5,271.5 c 10.202,0.297 10.868,1.797 2,4.5 -2.333,0.667 -4.667,0.667 -7,0 2.118,-1.049 3.784,-2.549 5,-4.5 z"
         id="path6" />
    </g>
    <g
       id="g7">
      <path
         style="opacity:1"
         fill="#e6e6e6"
         d="m 370.5,269.5 c 0.417,-0.624 1.084,-0.957 2,-1 3.631,0.991 7.298,1.824 11,2.5 -4.834,3.638 -9.167,3.138 -13,-1.5 z"
         id="path7" />
    </g>
    <g
       id="g8">
      <path
         style="opacity:1"
         fill="#121212"
         d="m 534.5,256.5 c 2.411,-0.363 3.911,0.637 4.5,3 2.505,15.858 -3.995,25.358 -19.5,28.5 -3.604,2.708 -6.104,6.208 -7.5,10.5 -0.718,0.951 -1.551,1.117 -2.5,0.5 -0.573,-7.482 2.761,-12.815 10,-16 9.744,-1.413 15.077,-7.079 16,-17 -0.157,-2.637 -0.823,-5.137 -2,-7.5 0.363,-0.683 0.696,-1.35 1,-2 z"
         id="path8" />
    </g>
    <g
       id="g9">
      <path
         style="opacity:1"
         fill="#111111"
         d="m 310.5,283.5 c 0.543,-0.06 0.876,-0.393 1,-1 -3.607,-0.989 -7.274,-1.323 -11,-1 -6.342,-1.671 -12.342,-4.171 -18,-7.5 -0.88,-1.356 -1.214,-2.856 -1,-4.5 6.311,2.487 12.645,4.987 19,7.5 4.255,0.796 8.421,0.629 12.5,-0.5 0.667,-2 0.667,-4 0,-6 -6.583,3.34 -13.417,3.84 -20.5,1.5 -3.779,-2.599 -6.113,-6.099 -7,-10.5 1.478,0.262 2.811,-0.071 4,-1 -1.545,-0.952 -3.212,-1.285 -5,-1 -0.17,-1.322 0.163,-2.489 1,-3.5 3.875,-1.52 7.875,-1.854 12,-1 4.908,2.038 9.741,4.205 14.5,6.5 -0.546,-2.593 -2.046,-4.76 -4.5,-6.5 -12.084,-6.25 -24.751,-10.917 -38,-14 -1.351,-2.125 -0.685,-3.292 2,-3.5 14.655,2.716 28.322,7.883 41,15.5 2.2,2.234 4.033,4.734 5.5,7.5 -0.014,20.044 -5.681,38.378 -17,55 -4.915,15.058 0.252,21.558 15.5,19.5 4.003,-2.253 8.17,-4.086 12.5,-5.5 5.491,1.829 10.657,4.329 15.5,7.5 3.304,1.042 5.471,-0.125 6.5,-3.5 1.892,-11.776 -2.942,-16.276 -14.5,-13.5 -0.912,-2.488 0.088,-4.155 3,-5 12.135,-1.198 17.635,4.302 16.5,16.5 -0.777,8.471 -5.277,11.638 -13.5,9.5 -4.296,-2.639 -8.796,-4.805 -13.5,-6.5 -4.287,2.223 -8.787,4.056 -13.5,5.5 -8.849,2.173 -15.349,-0.66 -19.5,-8.5 -0.667,-5.333 -0.667,-10.667 0,-16 3.667,-6.667 7.333,-13.333 11,-20 1.463,-3.922 2.629,-7.922 3.5,-12 z"
         id="path9" />
    </g>
    <g
       id="g10">
      <path
         style="opacity:1"
         fill="#eeeeee"
         d="m 305.5,263.5 c 7.941,1.722 7.941,3.388 0,5 0,-1.667 0,-3.333 0,-5 z"
         id="path10" />
    </g>
    <g
       id="g11">
      <path
         style="opacity:1"
         fill="#e9e9e9"
         d="m 293.5,259.5 c 5.489,-0.175 7.822,2.492 7,8 -5.52,0.349 -7.854,-2.317 -7,-8 z"
         id="path11" />
    </g>
    <g
       id="g12">
      <path
         style="opacity:1"
         fill="#0f0f0f"
         d="m 361.5,250.5 c 4.346,-0.166 8.679,0.001 13,0.5 1.18,2.598 3.18,4.264 6,5 7.338,0.11 14.672,0.11 22,0 2.363,0.589 3.363,2.089 3,4.5 -21.998,-0.705 -43.998,-0.872 -66,-0.5 -2.522,1.341 -5.189,2.174 -8,2.5 -0.535,-2.738 0.465,-4.572 3,-5.5 9.017,-2.672 18.017,-4.839 27,-6.5 z"
         id="path12" />
    </g>
    <g
       id="g13">
      <path
         style="opacity:1"
         fill="#0c0c0c"
         d="m 442.5,199.5 c 1.984,-0.016 2.984,0.984 3,3 -0.399,1.697 -0.899,3.363 -1.5,5 -6.042,6.373 -11.708,13.04 -17,20 -0.487,6.736 0.013,13.403 1.5,20 -1.333,0 -2.667,0 -4,0 -1.779,-7.237 -2.279,-14.57 -1.5,-22 4.256,-6.26 9.256,-11.927 15,-17 1.416,-3.109 2.916,-6.109 4.5,-9 z"
         id="path13" />
    </g>
    <g
       id="g14">
      <path
         style="opacity:1"
         fill="#131313"
         d="m 473.5,289.5 c 2.923,0.663 3.59,2.33 2,5 -15.691,9.524 -28.191,22.191 -37.5,38 -0.333,2.667 -0.667,5.333 -1,8 -0.837,1.507 -2.004,2.007 -3.5,1.5 -1.11,-2.737 -1.277,-5.571 -0.5,-8.5 4.139,-10.812 10.639,-19.978 19.5,-27.5 6.9,-5.745 13.9,-11.245 21,-16.5 z"
         id="path14" />
    </g>
    <g
       id="g15">
      <path
         style="opacity:1"
         fill="#8c8c8c"
         d="m 290.5,349.5 c 0.667,4.667 1.333,9.333 2,14 -0.06,0.543 -0.393,0.876 -1,1 -0.994,-4.956 -1.327,-9.956 -1,-15 z"
         id="path15" />
    </g>
    <g
       id="g16">
      <path
         style="opacity:1"
         fill="#f5f5f5"
         d="m 310.5,378.5 c 6.747,1.021 13.413,2.354 20,4 4.367,-0.509 8.701,-1.176 13,-2 -0.923,6.112 1.41,10.279 7,12.5 8.443,2.1 16.777,1.933 25,-0.5 2.926,5.52 5.593,11.187 8,17 -4.274,7.077 -10.607,11.243 -19,12.5 -3.333,0.667 -6.667,0.667 -10,0 -0.833,-0.833 -1.667,-1.667 -2.5,-2.5 0.073,-5.662 0.073,-11.329 0,-17 -1.214,-1.549 -2.714,-2.715 -4.5,-3.5 -5.168,-1.554 -10.335,-3.054 -15.5,-4.5 -1.987,0.654 -3.32,1.987 -4,4 -0.439,6.252 -2.606,11.752 -6.5,16.5 -1.667,0.667 -3.333,0.667 -5,0 -9.921,-6.057 -14.921,-14.557 -15,-25.5 2.403,4.417 6.07,6.751 11,7 -0.022,-6.083 -0.689,-12.083 -2,-18 z"
         id="path16" />
    </g>
    <g
       id="g17">
      <path
         style="opacity:1"
         fill="#070707"
         d="m 323.5,389.5 c 6.667,0 13.333,0 20,0 0.17,1.322 -0.163,2.489 -1,3.5 -6.325,0.5 -12.658,0.666 -19,0.5 0,-1.333 0,-2.667 0,-4 z"
         id="path17" />
    </g>
  </g>
</svg>
